<svg id="visual" viewBox="0 0 900 600" width="900" height="600" xmlns="http://www.w3.org/2000/svg" xmlns:xlink="http://www.w3.org/1999/xlink" version="1.1"><rect x="0" y="0" width="900" height="600" fill="#E3BD76"></rect><path d="M0 385L30 401.3C60 417.7 120 450.3 180 459.8C240 469.3 300 455.7 360 437.3C420 419 480 396 540 388.5C600 381 660 389 720 382.2C780 375.3 840 353.7 870 342.8L900 332L900 601L870 601C840 601 780 601 720 601C660 601 600 601 540 601C480 601 420 601 360 601C300 601 240 601 180 601C120 601 60 601 30 601L0 601Z" fill="#FFFFFF" stroke-linecap="round" stroke-linejoin="miter"></path></svg>